<svg width="80" height="80" viewBox="0 0 80 80" fill="none" xmlns="http://www.w3.org/2000/svg">
<path d="M0 40C0 17.9086 17.9086 0 40 0C62.0914 0 80 17.9086 80 40C80 62.0914 62.0914 80 40 80C17.9086 80 0 62.0914 0 40Z" fill="#05080F"/>
<path fill-rule="evenodd" clip-rule="evenodd" d="M39.9907 14C33.4915 14.0034 27.2054 16.3053 22.2564 20.4941C17.3075 24.6829 14.0184 30.4855 12.9772 36.8643C11.9361 43.2431 13.2108 49.7821 16.5735 55.3122C19.9361 60.8422 25.1675 65.0026 31.332 67.0495C32.692 67.302 33.2043 66.4591 33.2043 65.7424C33.2043 65.0257 33.1771 62.9477 33.168 60.6758C25.552 62.3211 23.9427 57.462 23.9427 57.462C22.7005 54.3067 20.9053 53.4773 20.9053 53.4773C18.421 51.7914 21.0912 51.823 21.0912 51.823C23.843 52.0168 25.2891 54.6312 25.2891 54.6312C27.728 58.7917 31.6947 57.5882 33.2542 56.885C33.499 55.1225 34.2107 53.9235 34.995 53.2429C28.9112 52.5577 22.5192 50.2228 22.5192 39.7923C22.4815 37.0872 23.491 34.4712 25.339 32.4855C25.0579 31.8004 24.1195 29.0327 25.6064 25.2734C25.6064 25.2734 27.9048 24.5432 33.1363 28.0636C37.6236 26.8435 42.3579 26.8435 46.8452 28.0636C52.0721 24.5432 54.366 25.2734 54.366 25.2734C55.8575 29.0237 54.9191 31.7914 54.638 32.4855C56.4918 34.4715 57.5034 37.0921 57.4623 39.8013C57.4623 50.2544 51.0566 52.5577 44.9638 53.2294C45.943 54.0768 46.818 55.731 46.818 58.2733C46.818 61.9154 46.7862 64.8453 46.7862 65.7424C46.7862 66.4681 47.2804 67.3155 48.6676 67.0495C54.8329 65.0024 60.0647 60.8412 63.4273 55.3102C66.7899 49.7793 68.064 43.2392 67.0217 36.8598C65.9793 30.4805 62.6886 24.6778 57.738 20.4897C52.7874 16.3016 46.4998 14.0012 39.9998 14H39.9907Z" fill="#F0F1F9"/>
<path d="M22.9809 53.0851C22.922 53.2203 22.7044 53.2609 22.5276 53.1662C22.3508 53.0716 22.2193 52.8958 22.2828 52.756C22.3463 52.6163 22.5593 52.5802 22.7361 52.6749C22.9129 52.7696 23.0489 52.9499 22.9809 53.0851Z" fill="#F0F1F9"/>
<path d="M24.0914 54.3156C23.9976 54.3627 23.8901 54.3758 23.7876 54.3528C23.6851 54.3298 23.5938 54.272 23.5293 54.1894C23.3525 54.0001 23.3162 53.7387 23.4522 53.6215C23.5882 53.5043 23.833 53.5584 24.0098 53.7477C24.1866 53.937 24.2274 54.1984 24.0914 54.3156Z" fill="#F0F1F9"/>
<path d="M25.1707 55.8797C25.0029 55.9969 24.7173 55.8797 24.5587 55.6453C24.5148 55.6033 24.4799 55.5529 24.4561 55.4971C24.4322 55.4413 24.4199 55.3814 24.4199 55.3208C24.4199 55.2602 24.4322 55.2002 24.4561 55.1445C24.4799 55.0887 24.5148 55.0383 24.5587 54.9962C24.7264 54.8836 25.012 54.9962 25.1707 55.2261C25.3293 55.456 25.3339 55.7625 25.1707 55.8797Z" fill="#F0F1F9"/>
<path d="M26.6351 57.3943C26.4855 57.5611 26.1817 57.516 25.9324 57.2907C25.6831 57.0653 25.6241 56.7588 25.7737 56.5965C25.9233 56.4342 26.2271 56.4793 26.4855 56.7002C26.7439 56.921 26.7937 57.2321 26.6351 57.3943Z" fill="#F0F1F9"/>
<path d="M28.6885 58.2778C28.6205 58.4896 28.3123 58.5843 28.004 58.4941C27.6957 58.404 27.4917 58.1516 27.5507 57.9352C27.6096 57.7188 27.9224 57.6197 28.2352 57.7188C28.548 57.818 28.7475 58.0569 28.6885 58.2778Z" fill="#F0F1F9"/>
<path d="M30.928 58.431C30.928 58.6519 30.6742 58.8412 30.3478 58.8457C30.0214 58.8502 29.7539 58.6699 29.7539 58.449C29.7539 58.2282 30.0078 58.0389 30.3342 58.0344C30.6606 58.0298 30.928 58.2056 30.928 58.431Z" fill="#F0F1F9"/>
<path d="M33.0134 58.084C33.0542 58.3049 32.8275 58.5348 32.5011 58.5889C32.1747 58.6429 31.8891 58.5122 31.8483 58.2959C31.8075 58.0795 32.0433 57.8451 32.3606 57.7865C32.6779 57.7279 32.9726 57.8631 33.0134 58.084Z" fill="#F0F1F9"/>
</svg>
