<svg width="80" height="80" viewBox="0 0 80 80" fill="none" xmlns="http://www.w3.org/2000/svg">
<path d="M0 40C0 17.9086 17.9086 0 40 0C62.0914 0 80 17.9086 80 40C80 62.0914 62.0914 80 40 80C17.9086 80 0 62.0914 0 40Z" fill="#05080F"/>
<path d="M40.0066 20.3261C46.4195 20.3261 47.1723 20.3547 49.707 20.469C52.0511 20.5738 53.3184 20.9645 54.1665 21.298C55.2909 21.7364 56.0913 22.2509 56.9299 23.0895C57.7684 23.928 58.2925 24.7284 58.7213 25.8528C59.0453 26.7009 59.4455 27.9682 59.5503 30.3123C59.6646 32.847 59.6932 33.5998 59.6932 40.0127C59.6932 46.4256 59.6646 47.1784 59.5503 49.7131C59.4455 52.0572 59.0548 53.3245 58.7213 54.1726C58.283 55.297 57.7684 56.0974 56.9299 56.9359C56.0913 57.7745 55.2909 58.2986 54.1665 58.7274C53.3184 59.0513 52.0511 59.4516 49.707 59.5564C47.1723 59.6707 46.4195 59.6993 40.0066 59.6993C33.5937 59.6993 32.8409 59.6707 30.3062 59.5564C27.9621 59.4516 26.6948 59.0609 25.8467 58.7274C24.7223 58.289 23.9219 57.7745 23.0834 56.9359C22.2448 56.0974 21.7207 55.297 21.2919 54.1726C20.968 53.3245 20.5677 52.0572 20.4629 49.7131C20.3486 47.1784 20.32 46.4256 20.32 40.0127C20.32 33.5998 20.3486 32.847 20.4629 30.3123C20.5677 27.9682 20.9584 26.7009 21.2919 25.8528C21.7303 24.7284 22.2448 23.928 23.0834 23.0895C23.9219 22.2509 24.7223 21.7268 25.8467 21.298C26.6948 20.9741 27.9621 20.5738 30.3062 20.469C32.8409 20.3452 33.6032 20.3261 40.0066 20.3261ZM40.0066 16C33.4889 16 32.6694 16.0286 30.1061 16.1429C27.5524 16.2573 25.8086 16.667 24.284 17.2578C22.7022 17.8677 21.3682 18.6967 20.0341 20.0307C18.7001 21.3647 17.8806 22.7083 17.2612 24.2806C16.6704 25.8052 16.2607 27.549 16.1464 30.1122C16.032 32.666 16.0034 33.4854 16.0034 40.0032C16.0034 46.5209 16.032 47.3404 16.1464 49.9036C16.2607 52.4574 16.6704 54.2012 17.2612 55.7353C17.8711 57.3171 18.7001 58.6511 20.0341 59.9852C21.3682 61.3192 22.7117 62.1387 24.284 62.7581C25.8086 63.3489 27.5524 63.7586 30.1157 63.8729C32.6789 63.9873 33.4889 64.0159 40.0161 64.0159C46.5434 64.0159 47.3534 63.9873 49.9166 63.8729C52.4704 63.7586 54.2141 63.3489 55.7483 62.7581C57.3301 62.1482 58.6641 61.3192 59.9981 59.9852C61.3322 58.6511 62.1517 57.3076 62.771 55.7353C63.3618 54.2107 63.7716 52.4669 63.8859 49.9036C64.0003 47.3404 64.0289 46.5304 64.0289 40.0032C64.0289 33.4759 64.0003 32.666 63.8859 30.1027C63.7716 27.549 63.3618 25.8052 62.771 24.271C62.1612 22.6893 61.3322 21.3552 59.9981 20.0212C58.6641 18.6871 57.3205 17.8677 55.7483 17.2483C54.2237 16.6575 52.4799 16.2478 49.9166 16.1334C47.3438 16.0286 46.5243 16 40.0066 16Z" fill="#F0F1F9"/>
<path d="M40.0066 20.3261C46.4195 20.3261 47.1723 20.3547 49.707 20.469C52.0511 20.5738 53.3184 20.9645 54.1665 21.298C55.2909 21.7364 56.0913 22.2509 56.9299 23.0895C57.7684 23.928 58.2925 24.7284 58.7213 25.8528C59.0453 26.7009 59.4455 27.9682 59.5503 30.3123C59.6646 32.847 59.6932 33.5998 59.6932 40.0127C59.6932 46.4256 59.6646 47.1784 59.5503 49.7131C59.4455 52.0572 59.0548 53.3245 58.7213 54.1726C58.283 55.297 57.7684 56.0974 56.9299 56.9359C56.0913 57.7745 55.2909 58.2986 54.1665 58.7274C53.3184 59.0513 52.0511 59.4516 49.707 59.5564C47.1723 59.6707 46.4195 59.6993 40.0066 59.6993C33.5937 59.6993 32.8409 59.6707 30.3062 59.5564C27.9621 59.4516 26.6948 59.0609 25.8467 58.7274C24.7223 58.289 23.9219 57.7745 23.0834 56.9359C22.2448 56.0974 21.7207 55.297 21.2919 54.1726C20.968 53.3245 20.5677 52.0572 20.4629 49.7131C20.3486 47.1784 20.32 46.4256 20.32 40.0127C20.32 33.5998 20.3486 32.847 20.4629 30.3123C20.5677 27.9682 20.9584 26.7009 21.2919 25.8528C21.7303 24.7284 22.2448 23.928 23.0834 23.0895C23.9219 22.2509 24.7223 21.7268 25.8467 21.298C26.6948 20.9741 27.9621 20.5738 30.3062 20.469C32.8409 20.3452 33.6032 20.3261 40.0066 20.3261Z" fill="#F0F1F9"/>
<path d="M40.0061 27.6824C33.2025 27.6824 27.6758 33.1996 27.6758 40.0127C27.6758 46.8258 33.193 52.343 40.0061 52.343C46.8192 52.343 52.3364 46.8258 52.3364 40.0127C52.3364 33.1996 46.8192 27.6824 40.0061 27.6824ZM40.0061 48.0074C35.5847 48.0074 32.0019 44.4246 32.0019 40.0032C32.0019 35.5818 35.5847 31.9989 40.0061 31.9989C44.4275 31.9989 48.0103 35.5818 48.0103 40.0032C48.0103 44.4246 44.4275 48.0074 40.0061 48.0074Z" fill="#05080F"/>
<path d="M52.8225 30.0646C54.4119 30.0646 55.7002 28.7762 55.7002 27.1869C55.7002 25.5975 54.4119 24.3091 52.8225 24.3091C51.2332 24.3091 49.9448 25.5975 49.9448 27.1869C49.9448 28.7762 51.2332 30.0646 52.8225 30.0646Z" fill="#05080F"/>
</svg>
