<svg width="80" height="80" viewBox="0 0 80 80" fill="none" xmlns="http://www.w3.org/2000/svg">
<path d="M0 40C0 17.9086 17.9086 0 40 0C62.0914 0 80 17.9086 80 40C80 62.0914 62.0914 80 40 80C17.9086 80 0 62.0914 0 40Z" fill="#05080F"/>
<path d="M58.7519 18H21.2481C20.3866 18 19.5605 18.3422 18.9513 18.9513C18.3422 19.5605 18 20.3866 18 21.2481V58.7519C18 59.6134 18.3422 60.4395 18.9513 61.0487C19.5605 61.6578 20.3866 62 21.2481 62H58.7519C59.6134 62 60.4395 61.6578 61.0487 61.0487C61.6578 60.4395 62 59.6134 62 58.7519V21.2481C62 20.3866 61.6578 19.5605 61.0487 18.9513C60.4395 18.3422 59.6134 18 58.7519 18ZM31.1144 55.4825H24.4992V34.4694H31.1144V55.4825ZM27.8022 31.5575C27.0518 31.5533 26.3195 31.3269 25.6977 30.9068C25.0758 30.4868 24.5924 29.892 24.3083 29.1974C24.0242 28.5029 23.9522 27.7398 24.1014 27.0043C24.2506 26.2689 24.6143 25.5942 25.1466 25.0653C25.6789 24.5364 26.356 24.177 27.0924 24.0325C27.8287 23.888 28.5914 23.9649 29.2841 24.2535C29.9768 24.542 30.5685 25.0293 30.9845 25.6538C31.4005 26.2783 31.6223 27.0121 31.6217 27.7625C31.6287 28.2649 31.5346 28.7636 31.3449 29.2288C31.1551 29.694 30.8736 30.1163 30.5172 30.4705C30.1608 30.8246 29.7367 31.1034 29.2703 31.2901C28.8038 31.4769 28.3046 31.5678 27.8022 31.5575ZM55.4978 55.5008H48.8856V44.0211C48.8856 40.6356 47.4464 39.5906 45.5886 39.5906C43.6269 39.5906 41.7019 41.0694 41.7019 44.1067V55.5008H35.0867V34.4847H41.4483V37.3967H41.5339C42.1725 36.1042 44.4092 33.895 47.8222 33.895C51.5133 33.895 55.5008 36.0858 55.5008 42.5025L55.4978 55.5008Z" fill="#F0F1F9"/>
</svg>
