<svg width="80" height="80" viewBox="0 0 80 80" fill="none" xmlns="http://www.w3.org/2000/svg">
<path d="M0 40C0 17.9086 17.9086 0 40 0C62.0914 0 80 17.9086 80 40C80 62.0914 62.0914 80 40 80C17.9086 80 0 62.0914 0 40Z" fill="#05080F"/>
<path d="M39.9901 16C26.7215 16 16 26.7412 16 39.9901C16 50.1588 22.3184 58.8466 31.2431 62.3414C31.0259 60.4459 30.8482 57.5236 31.3221 55.4504C31.7565 53.5746 34.1259 43.5245 34.1259 43.5245C34.1259 43.5245 33.4151 42.0831 33.4151 39.9704C33.4151 36.6335 35.35 34.1456 37.7589 34.1456C39.8124 34.1456 40.7997 35.6857 40.7997 37.522C40.7997 39.5755 39.4965 42.6557 38.8054 45.5187C38.2328 47.9079 40.0099 49.8626 42.3595 49.8626C46.6244 49.8626 49.9021 45.3607 49.9021 38.8844C49.9021 33.1386 45.7754 29.1304 39.8716 29.1304C33.0399 29.1304 29.0317 34.2443 29.0317 39.536C29.0317 41.5895 29.8215 43.8009 30.8087 45.0053C31.0062 45.2423 31.0259 45.4595 30.9667 45.6964C30.789 46.4467 30.3743 48.0855 30.2954 48.4212C30.1966 48.8556 29.9399 48.9543 29.4858 48.7372C26.524 47.3155 24.668 42.9321 24.668 39.4175C24.668 31.8552 30.1571 24.905 40.5232 24.905C48.8359 24.905 55.3122 30.8284 55.3122 38.7659C55.3122 47.0391 50.0995 53.6931 42.8729 53.6931C40.4442 53.6931 38.1538 52.4295 37.3838 50.9288C37.3838 50.9288 36.1793 55.5097 35.8832 56.6351C35.35 58.7281 33.8889 61.3344 32.9017 62.9338C35.1526 63.6248 37.522 64 40.0099 64C53.2588 64 64 53.2588 64 40.0099C63.9803 26.7412 53.239 16 39.9901 16Z" fill="#F0F1F9"/>
</svg>
